<mxfile host="app.diagrams.net" agent="Mozilla/5.0 (Windows NT 10.0; Win64; x64) AppleWebKit/537.36 (KHTML, like Gecko) Chrome/131.0.0.0 Safari/537.36" version="26.0.4">
  <diagram name="Página-1" id="ebZhWtp2ZoCMmyopzvzG">
    <mxGraphModel dx="2261" dy="1907" grid="1" gridSize="10" guides="1" tooltips="1" connect="1" arrows="1" fold="1" page="1" pageScale="1" pageWidth="827" pageHeight="1169" math="0" shadow="0">
      <root>
        <mxCell id="0" />
        <mxCell id="1" parent="0" />
        <mxCell id="maSOt903Uk9eLPSb1Qkj-26" style="edgeStyle=orthogonalEdgeStyle;rounded=0;orthogonalLoop=1;jettySize=auto;html=1;entryX=0;entryY=0.5;entryDx=0;entryDy=0;" edge="1" parent="1" source="maSOt903Uk9eLPSb1Qkj-22" target="maSOt903Uk9eLPSb1Qkj-25">
          <mxGeometry relative="1" as="geometry">
            <mxPoint x="330" y="-370" as="targetPoint" />
          </mxGeometry>
        </mxCell>
        <mxCell id="maSOt903Uk9eLPSb1Qkj-22" value="Pessoa" style="whiteSpace=wrap;html=1;align=center;" vertex="1" parent="1">
          <mxGeometry x="100" y="-380" width="120" height="40" as="geometry" />
        </mxCell>
        <mxCell id="maSOt903Uk9eLPSb1Qkj-30" style="edgeStyle=orthogonalEdgeStyle;rounded=0;orthogonalLoop=1;jettySize=auto;html=1;entryX=0.5;entryY=0;entryDx=0;entryDy=0;" edge="1" parent="1" source="maSOt903Uk9eLPSb1Qkj-23" target="maSOt903Uk9eLPSb1Qkj-25">
          <mxGeometry relative="1" as="geometry" />
        </mxCell>
        <mxCell id="maSOt903Uk9eLPSb1Qkj-23" value="Banco" style="whiteSpace=wrap;html=1;align=center;" vertex="1" parent="1">
          <mxGeometry x="360" y="-584" width="100" height="40" as="geometry" />
        </mxCell>
        <mxCell id="maSOt903Uk9eLPSb1Qkj-27" style="edgeStyle=orthogonalEdgeStyle;rounded=0;orthogonalLoop=1;jettySize=auto;html=1;entryX=1;entryY=0.5;entryDx=0;entryDy=0;" edge="1" parent="1" source="maSOt903Uk9eLPSb1Qkj-24" target="maSOt903Uk9eLPSb1Qkj-25">
          <mxGeometry relative="1" as="geometry" />
        </mxCell>
        <mxCell id="maSOt903Uk9eLPSb1Qkj-24" value="Company" style="whiteSpace=wrap;html=1;align=center;" vertex="1" parent="1">
          <mxGeometry x="586.5" y="-380" width="100" height="40" as="geometry" />
        </mxCell>
        <mxCell id="maSOt903Uk9eLPSb1Qkj-25" value="U" style="ellipse;whiteSpace=wrap;html=1;aspect=fixed;" vertex="1" parent="1">
          <mxGeometry x="370" y="-400" width="80" height="80" as="geometry" />
        </mxCell>
        <mxCell id="maSOt903Uk9eLPSb1Qkj-33" style="edgeStyle=orthogonalEdgeStyle;rounded=0;orthogonalLoop=1;jettySize=auto;html=1;entryX=0.5;entryY=1;entryDx=0;entryDy=0;" edge="1" parent="1" source="maSOt903Uk9eLPSb1Qkj-32" target="maSOt903Uk9eLPSb1Qkj-25">
          <mxGeometry relative="1" as="geometry" />
        </mxCell>
        <mxCell id="maSOt903Uk9eLPSb1Qkj-32" value="Owner" style="whiteSpace=wrap;html=1;align=center;" vertex="1" parent="1">
          <mxGeometry x="360" y="-220" width="100" height="40" as="geometry" />
        </mxCell>
        <mxCell id="maSOt903Uk9eLPSb1Qkj-38" style="edgeStyle=orthogonalEdgeStyle;rounded=0;orthogonalLoop=1;jettySize=auto;html=1;entryX=0;entryY=0.5;entryDx=0;entryDy=0;" edge="1" parent="1" source="maSOt903Uk9eLPSb1Qkj-34" target="maSOt903Uk9eLPSb1Qkj-22">
          <mxGeometry relative="1" as="geometry">
            <Array as="points">
              <mxPoint x="40" y="-360" />
              <mxPoint x="40" y="-360" />
            </Array>
          </mxGeometry>
        </mxCell>
        <mxCell id="maSOt903Uk9eLPSb1Qkj-34" value="Licença" style="ellipse;whiteSpace=wrap;html=1;align=center;" vertex="1" parent="1">
          <mxGeometry x="-70" y="-460" width="100" height="40" as="geometry" />
        </mxCell>
        <mxCell id="maSOt903Uk9eLPSb1Qkj-39" style="edgeStyle=orthogonalEdgeStyle;rounded=0;orthogonalLoop=1;jettySize=auto;html=1;entryX=0.25;entryY=0;entryDx=0;entryDy=0;" edge="1" parent="1" source="maSOt903Uk9eLPSb1Qkj-36" target="maSOt903Uk9eLPSb1Qkj-22">
          <mxGeometry relative="1" as="geometry" />
        </mxCell>
        <mxCell id="maSOt903Uk9eLPSb1Qkj-36" value="CPF&lt;span style=&quot;color: rgba(0, 0, 0, 0); font-family: monospace; font-size: 0px; text-align: start; text-wrap-mode: nowrap;&quot;&gt;%3CmxGraphModel%3E%3Croot%3E%3CmxCell%20id%3D%220%22%2F%3E%3CmxCell%20id%3D%221%22%20parent%3D%220%22%2F%3E%3CmxCell%20id%3D%222%22%20value%3D%22Licen%C3%A7a%22%20style%3D%22ellipse%3BwhiteSpace%3Dwrap%3Bhtml%3D1%3Balign%3Dcenter%3B%22%20vertex%3D%221%22%20parent%3D%221%22%3E%3CmxGeometry%20x%3D%2250%22%20y%3D%22-550%22%20width%3D%22100%22%20height%3D%2240%22%20as%3D%22geometry%22%2F%3E%3C%2FmxCell%3E%3C%2Froot%3E%3C%2FmxGraphModel%3E&lt;/span&gt;" style="ellipse;whiteSpace=wrap;html=1;align=center;" vertex="1" parent="1">
          <mxGeometry x="40" y="-570" width="100" height="40" as="geometry" />
        </mxCell>
        <mxCell id="maSOt903Uk9eLPSb1Qkj-40" style="edgeStyle=orthogonalEdgeStyle;rounded=0;orthogonalLoop=1;jettySize=auto;html=1;entryX=0.5;entryY=0;entryDx=0;entryDy=0;" edge="1" parent="1" source="maSOt903Uk9eLPSb1Qkj-37" target="maSOt903Uk9eLPSb1Qkj-22">
          <mxGeometry relative="1" as="geometry" />
        </mxCell>
        <mxCell id="maSOt903Uk9eLPSb1Qkj-37" value="Nome" style="ellipse;whiteSpace=wrap;html=1;align=center;" vertex="1" parent="1">
          <mxGeometry x="150" y="-550" width="100" height="40" as="geometry" />
        </mxCell>
        <mxCell id="maSOt903Uk9eLPSb1Qkj-42" style="edgeStyle=orthogonalEdgeStyle;rounded=0;orthogonalLoop=1;jettySize=auto;html=1;entryX=1;entryY=0.25;entryDx=0;entryDy=0;" edge="1" parent="1" source="maSOt903Uk9eLPSb1Qkj-41" target="maSOt903Uk9eLPSb1Qkj-22">
          <mxGeometry relative="1" as="geometry" />
        </mxCell>
        <mxCell id="maSOt903Uk9eLPSb1Qkj-41" value="Endereço" style="ellipse;whiteSpace=wrap;html=1;align=center;" vertex="1" parent="1">
          <mxGeometry x="230" y="-490" width="100" height="40" as="geometry" />
        </mxCell>
        <mxCell id="maSOt903Uk9eLPSb1Qkj-46" style="edgeStyle=orthogonalEdgeStyle;rounded=0;orthogonalLoop=1;jettySize=auto;html=1;entryX=0.5;entryY=0;entryDx=0;entryDy=0;" edge="1" parent="1" source="maSOt903Uk9eLPSb1Qkj-43" target="maSOt903Uk9eLPSb1Qkj-23">
          <mxGeometry relative="1" as="geometry" />
        </mxCell>
        <mxCell id="maSOt903Uk9eLPSb1Qkj-43" value="Nome" style="ellipse;whiteSpace=wrap;html=1;align=center;" vertex="1" parent="1">
          <mxGeometry x="314" y="-680" width="100" height="40" as="geometry" />
        </mxCell>
        <mxCell id="maSOt903Uk9eLPSb1Qkj-45" style="edgeStyle=orthogonalEdgeStyle;rounded=0;orthogonalLoop=1;jettySize=auto;html=1;entryX=1;entryY=0.5;entryDx=0;entryDy=0;" edge="1" parent="1" source="maSOt903Uk9eLPSb1Qkj-44" target="maSOt903Uk9eLPSb1Qkj-23">
          <mxGeometry relative="1" as="geometry" />
        </mxCell>
        <mxCell id="maSOt903Uk9eLPSb1Qkj-44" value="Bendereço" style="ellipse;whiteSpace=wrap;html=1;align=center;fontStyle=4;" vertex="1" parent="1">
          <mxGeometry x="440" y="-680" width="100" height="40" as="geometry" />
        </mxCell>
        <mxCell id="maSOt903Uk9eLPSb1Qkj-49" value="Cendereço" style="ellipse;whiteSpace=wrap;html=1;align=center;" vertex="1" parent="1">
          <mxGeometry x="610" y="-500" width="100" height="40" as="geometry" />
        </mxCell>
        <mxCell id="maSOt903Uk9eLPSb1Qkj-51" style="edgeStyle=orthogonalEdgeStyle;rounded=0;orthogonalLoop=1;jettySize=auto;html=1;entryX=1;entryY=0.5;entryDx=0;entryDy=0;" edge="1" parent="1" source="maSOt903Uk9eLPSb1Qkj-50" target="maSOt903Uk9eLPSb1Qkj-24">
          <mxGeometry relative="1" as="geometry" />
        </mxCell>
        <mxCell id="maSOt903Uk9eLPSb1Qkj-50" value="Cnome" style="ellipse;whiteSpace=wrap;html=1;align=center;fontStyle=4;" vertex="1" parent="1">
          <mxGeometry x="760" y="-380" width="100" height="40" as="geometry" />
        </mxCell>
        <mxCell id="maSOt903Uk9eLPSb1Qkj-52" style="edgeStyle=orthogonalEdgeStyle;rounded=0;orthogonalLoop=1;jettySize=auto;html=1;" edge="1" parent="1" source="maSOt903Uk9eLPSb1Qkj-49">
          <mxGeometry relative="1" as="geometry">
            <mxPoint x="660" y="-390" as="targetPoint" />
          </mxGeometry>
        </mxCell>
      </root>
    </mxGraphModel>
  </diagram>
</mxfile>
